<?xml version="1.0" encoding="UTF-8"?>
<!DOCTYPE svg PUBLIC "-//W3C//DTD SVG 1.1//EN" "http://www.w3.org/Graphics/SVG/1.1/DTD/svg11.dtd">
<svg xmlns="http://www.w3.org/2000/svg" xmlns:xlink="http://www.w3.org/1999/xlink" version="1.1" width="386px" height="472px" viewBox="-0.5 -0.5 386 472"><defs><clipPath id="mx-clip-4-110-132-30-0"><rect x="4" y="110" width="132" height="30"/></clipPath><clipPath id="mx-clip-4-140-132-30-0"><rect x="4" y="140" width="132" height="30"/></clipPath><clipPath id="mx-clip-4-170-132-30-0"><rect x="4" y="170" width="132" height="30"/></clipPath><clipPath id="mx-clip-4-200-132-30-0"><rect x="4" y="200" width="132" height="30"/></clipPath><clipPath id="mx-clip-4-230-132-30-0"><rect x="4" y="230" width="132" height="30"/></clipPath><clipPath id="mx-clip-249-30-132-30-0"><rect x="249" y="30" width="132" height="30"/></clipPath><clipPath id="mx-clip-249-60-132-30-0"><rect x="249" y="60" width="132" height="30"/></clipPath><clipPath id="mx-clip-249-90-132-30-0"><rect x="249" y="90" width="132" height="30"/></clipPath><clipPath id="mx-clip-249-120-132-30-0"><rect x="249" y="120" width="132" height="30"/></clipPath><clipPath id="mx-clip-249-150-132-30-0"><rect x="249" y="150" width="132" height="30"/></clipPath><clipPath id="mx-clip-249-180-132-30-0"><rect x="249" y="180" width="132" height="30"/></clipPath><clipPath id="mx-clip-249-260-132-30-0"><rect x="249" y="260" width="132" height="30"/></clipPath><clipPath id="mx-clip-249-290-132-30-0"><rect x="249" y="290" width="132" height="30"/></clipPath><clipPath id="mx-clip-249-320-132-30-0"><rect x="249" y="320" width="132" height="30"/></clipPath><clipPath id="mx-clip-249-350-132-30-0"><rect x="249" y="350" width="132" height="30"/></clipPath><clipPath id="mx-clip-249-380-132-30-0"><rect x="249" y="380" width="132" height="30"/></clipPath><clipPath id="mx-clip-249-410-132-30-0"><rect x="249" y="410" width="132" height="30"/></clipPath><clipPath id="mx-clip-249-440-132-30-0"><rect x="249" y="440" width="132" height="30"/></clipPath><style type="text/css">@import url(https://fonts.googleapis.com/css?family=Montserrat);&#xa;</style></defs><g><path d="M 0 110 L 0 80 L 140 80 L 140 110" fill="#e1d5e7" stroke="#9673a6" stroke-miterlimit="10" pointer-events="all"/><path d="M 0 110 L 0 260 L 140 260 L 140 110" fill="none" stroke="#9673a6" stroke-miterlimit="10" pointer-events="none"/><path d="M 0 110 L 140 110" fill="none" stroke="#9673a6" stroke-miterlimit="10" pointer-events="none"/><g fill="rgb(0, 0, 0)" font-family="Montserrat" font-weight="bold" pointer-events="none" text-anchor="middle" font-size="12px"><text x="69.5" y="99.5">User</text></g><rect x="0" y="110" width="140" height="30" fill="rgb(255, 255, 255)" stroke="rgb(0, 0, 0)" pointer-events="none"/><g fill="rgb(0, 0, 0)" font-family="Montserrat" pointer-events="none" clip-path="url(#mx-clip-4-110-132-30-0)" text-anchor="middle" font-size="12px"><text x="69.5" y="129.5">id</text></g><rect x="0" y="140" width="140" height="30" fill="rgb(255, 255, 255)" stroke="rgb(0, 0, 0)" pointer-events="none"/><g fill="rgb(0, 0, 0)" font-family="Montserrat" pointer-events="none" clip-path="url(#mx-clip-4-140-132-30-0)" text-anchor="middle" font-size="12px"><text x="69.5" y="159.5">name</text></g><rect x="0" y="170" width="140" height="30" fill="rgb(255, 255, 255)" stroke="rgb(0, 0, 0)" pointer-events="none"/><g fill="rgb(0, 0, 0)" font-family="Montserrat" pointer-events="none" clip-path="url(#mx-clip-4-170-132-30-0)" text-anchor="middle" font-size="12px"><text x="69.5" y="189.5">phoneNr</text></g><rect x="0" y="200" width="140" height="30" fill="rgb(255, 255, 255)" stroke="rgb(0, 0, 0)" pointer-events="none"/><g fill="rgb(0, 0, 0)" font-family="Montserrat" pointer-events="none" clip-path="url(#mx-clip-4-200-132-30-0)" text-anchor="middle" font-size="12px"><text x="69.5" y="219.5">email</text></g><rect x="0" y="230" width="140" height="30" fill="rgb(255, 255, 255)" stroke="rgb(0, 0, 0)" pointer-events="none"/><g fill="rgb(0, 0, 0)" font-family="Montserrat" pointer-events="none" clip-path="url(#mx-clip-4-230-132-30-0)" text-anchor="middle" font-size="12px"><text x="69.5" y="249.5">passwordHash</text></g><path d="M 245 30 L 245 0 L 385 0 L 385 30" fill="#e1d5e7" stroke="rgb(0, 0, 0)" stroke-miterlimit="10" pointer-events="none"/><path d="M 245 30 L 245 210 L 385 210 L 385 30" fill="none" stroke="rgb(0, 0, 0)" stroke-miterlimit="10" pointer-events="none"/><path d="M 245 30 L 385 30" fill="none" stroke="rgb(0, 0, 0)" stroke-miterlimit="10" pointer-events="none"/><g fill="rgb(0, 0, 0)" font-family="Montserrat" font-weight="bold" pointer-events="none" text-anchor="middle" font-size="12px"><text x="314.5" y="19.5">Sighting</text></g><rect x="245" y="30" width="140" height="30" fill="rgb(255, 255, 255)" stroke="rgb(0, 0, 0)" pointer-events="none"/><g fill="rgb(0, 0, 0)" font-family="Montserrat" pointer-events="none" clip-path="url(#mx-clip-249-30-132-30-0)" text-anchor="middle" font-size="12px"><text x="314.5" y="49.5">id</text></g><rect x="245" y="60" width="140" height="30" fill="rgb(255, 255, 255)" stroke="rgb(0, 0, 0)" pointer-events="none"/><g fill="rgb(0, 0, 0)" font-family="Montserrat" pointer-events="none" clip-path="url(#mx-clip-249-60-132-30-0)" text-anchor="middle" font-size="12px"><text x="314.5" y="79.5">type [dog or cat]</text></g><rect x="245" y="90" width="140" height="30" fill="rgb(255, 255, 255)" stroke="rgb(0, 0, 0)" pointer-events="none"/><g fill="rgb(0, 0, 0)" font-family="Montserrat" pointer-events="none" clip-path="url(#mx-clip-249-90-132-30-0)" text-anchor="middle" font-size="12px"><text x="314.5" y="109.5">location</text></g><rect x="245" y="120" width="140" height="30" fill="rgb(255, 255, 255)" stroke="rgb(0, 0, 0)" pointer-events="none"/><g fill="rgb(0, 0, 0)" font-family="Montserrat" pointer-events="none" clip-path="url(#mx-clip-249-120-132-30-0)" text-anchor="middle" font-size="12px"><text x="314.5" y="139.5">photo</text></g><rect x="245" y="150" width="140" height="30" fill="rgb(255, 255, 255)" stroke="rgb(0, 0, 0)" pointer-events="none"/><g fill="rgb(0, 0, 0)" font-family="Montserrat" pointer-events="none" clip-path="url(#mx-clip-249-150-132-30-0)" text-anchor="middle" font-size="12px"><text x="314.5" y="169.5">passwordHash</text></g><rect x="245" y="180" width="140" height="30" fill="rgb(255, 255, 255)" stroke="rgb(0, 0, 0)" pointer-events="none"/><g fill="rgb(0, 0, 0)" font-family="Montserrat" pointer-events="none" clip-path="url(#mx-clip-249-180-132-30-0)" text-anchor="middle" font-size="12px"><text x="314.5" y="199.5">postDate</text></g><path d="M 245 260 L 245 230 L 385 230 L 385 260" fill="#e1d5e7" stroke="#9673a6" stroke-miterlimit="10" pointer-events="none"/><path d="M 245 260 L 245 470 L 385 470 L 385 260" fill="none" stroke="#9673a6" stroke-miterlimit="10" pointer-events="none"/><path d="M 245 260 L 385 260" fill="none" stroke="#9673a6" stroke-miterlimit="10" pointer-events="none"/><g fill="rgb(0, 0, 0)" font-family="Montserrat" font-weight="bold" pointer-events="none" text-anchor="middle" font-size="12px"><text x="314.5" y="249.5">Poster</text></g><rect x="245" y="260" width="140" height="30" fill="rgb(255, 255, 255)" stroke="rgb(0, 0, 0)" pointer-events="none"/><g fill="rgb(0, 0, 0)" font-family="Montserrat" pointer-events="none" clip-path="url(#mx-clip-249-260-132-30-0)" text-anchor="middle" font-size="12px"><text x="314.5" y="279.5">id</text></g><rect x="245" y="290" width="140" height="30" fill="rgb(255, 255, 255)" stroke="rgb(0, 0, 0)" pointer-events="none"/><g fill="rgb(0, 0, 0)" font-family="Montserrat" pointer-events="none" clip-path="url(#mx-clip-249-290-132-30-0)" text-anchor="middle" font-size="12px"><text x="314.5" y="309.5">petName</text></g><rect x="245" y="320" width="140" height="30" fill="rgb(255, 255, 255)" stroke="rgb(0, 0, 0)" pointer-events="none"/><g fill="rgb(0, 0, 0)" font-family="Montserrat" pointer-events="none" clip-path="url(#mx-clip-249-320-132-30-0)" text-anchor="middle" font-size="12px"><text x="314.5" y="339.5">type [dog or cat]</text></g><rect x="245" y="350" width="140" height="30" fill="rgb(255, 255, 255)" stroke="rgb(0, 0, 0)" pointer-events="none"/><g fill="rgb(0, 0, 0)" font-family="Montserrat" pointer-events="none" clip-path="url(#mx-clip-249-350-132-30-0)" text-anchor="middle" font-size="12px"><text x="314.5" y="369.5">location</text></g><rect x="245" y="380" width="140" height="30" fill="rgb(255, 255, 255)" stroke="rgb(0, 0, 0)" pointer-events="none"/><g fill="rgb(0, 0, 0)" font-family="Montserrat" pointer-events="none" clip-path="url(#mx-clip-249-380-132-30-0)" text-anchor="middle" font-size="12px"><text x="314.5" y="399.5">description</text></g><rect x="245" y="410" width="140" height="30" fill="rgb(255, 255, 255)" stroke="rgb(0, 0, 0)" pointer-events="none"/><g fill="rgb(0, 0, 0)" font-family="Montserrat" pointer-events="none" clip-path="url(#mx-clip-249-410-132-30-0)" text-anchor="middle" font-size="12px"><text x="314.5" y="429.5">photo</text></g><rect x="245" y="440" width="140" height="30" fill="rgb(255, 255, 255)" stroke="rgb(0, 0, 0)" pointer-events="none"/><g fill="rgb(0, 0, 0)" font-family="Montserrat" pointer-events="none" clip-path="url(#mx-clip-249-440-132-30-0)" text-anchor="middle" font-size="12px"><text x="314.5" y="459.5">postDate</text></g><path d="M 140 125 L 170 125 L 215 45 L 245 45" fill="none" stroke="rgb(0, 0, 0)" stroke-miterlimit="10" pointer-events="none"/><path d="M 144 121 L 144 129 M 148 121 L 148 129" fill="none" stroke="rgb(0, 0, 0)" stroke-miterlimit="10" pointer-events="none"/><ellipse cx="233" cy="45" rx="3" ry="3" fill="#ffffff" stroke="rgb(0, 0, 0)" pointer-events="none"/><path d="M 245 41 L 237 45 L 245 49" fill="none" stroke="rgb(0, 0, 0)" stroke-miterlimit="10" pointer-events="none"/><path d="M 140 125 L 170 125 L 215 275 L 245 275" fill="none" stroke="rgb(0, 0, 0)" stroke-miterlimit="10" pointer-events="none"/><path d="M 144 121 L 144 129 M 148 121 L 148 129" fill="none" stroke="rgb(0, 0, 0)" stroke-miterlimit="10" pointer-events="none"/><ellipse cx="233" cy="275" rx="3" ry="3" fill="#ffffff" stroke="rgb(0, 0, 0)" pointer-events="none"/><path d="M 245 271 L 237 275 L 245 279" fill="none" stroke="rgb(0, 0, 0)" stroke-miterlimit="10" pointer-events="none"/></g></svg>